<svg width="32" height="29" viewBox="0 0 32 29" fill="none" xmlns="http://www.w3.org/2000/svg">
<path d="M20.0939 0.329681C19.0028 0.329681 18.1213 1.11893 18.1213 2.09582C18.1213 3.07272 19.0028 3.86196 20.0939 3.86196H25.1919L12.7829 14.9776C12.0123 15.6675 12.0123 16.7879 12.7829 17.4778C13.5534 18.1677 14.8048 18.1677 15.5754 17.4778L27.9844 6.36215V10.9265C27.9844 11.9034 28.8659 12.6927 29.957 12.6927C31.0481 12.6927 31.9297 11.9034 31.9297 10.9265V2.09582C31.9297 1.11893 31.0481 0.329681 29.957 0.329681H20.0939ZM5.29924 2.09582C2.57455 2.09582 0.367676 4.07169 0.367676 6.51117V24.1726C0.367676 26.6121 2.57455 28.5879 5.29924 28.5879H25.0255C27.7502 28.5879 29.957 26.6121 29.957 24.1726V17.9911C29.957 17.0142 29.0755 16.2249 27.9844 16.2249C26.8933 16.2249 26.0118 17.0142 26.0118 17.9911V24.1726C26.0118 24.6583 25.5679 25.0556 25.0255 25.0556H5.29924C4.75676 25.0556 4.31292 24.6583 4.31292 24.1726V6.51117C4.31292 6.02548 4.75676 5.6281 5.29924 5.6281H12.2034C13.2945 5.6281 14.176 4.83886 14.176 3.86196C14.176 2.88507 13.2945 2.09582 12.2034 2.09582H5.29924Z" fill="black"/>
</svg>
