<svg width="32" height="33" viewBox="0 0 32 33" fill="none" xmlns="http://www.w3.org/2000/svg">
<path d="M15.9731 0.0384521C7.26003 0.0384521 0.194092 7.40101 0.194092 16.4834C0.194092 23.7477 4.71535 29.9104 10.9883 32.0869C11.7773 32.2384 12.0653 31.7306 12.0653 31.2945C12.0653 30.9034 12.0515 29.8695 12.0436 28.4977C7.65456 29.4907 6.72742 26.2926 6.72742 26.2926C6.01136 24.3926 4.97573 23.8869 4.97573 23.8869C3.54163 22.8673 5.08225 22.8878 5.08225 22.8878C6.66627 23.0045 7.49872 24.583 7.49872 24.583C8.90717 27.0952 11.1934 26.3704 12.093 25.9487C12.235 24.886 12.6433 24.1613 13.0951 23.7497C9.59167 23.3341 5.90681 21.9234 5.90681 15.6235C5.90681 13.8279 6.52227 12.3599 7.53225 11.2092C7.36853 10.7936 6.82803 9.12085 7.68612 6.85844C7.68612 6.85844 9.01172 6.41619 12.0259 8.54347C13.2844 8.17903 14.6337 7.99681 15.9771 7.99067C17.3165 7.99886 18.6677 8.17903 19.9282 8.54552C22.9404 6.41824 24.264 6.86049 24.264 6.86049C25.1241 9.12494 24.5836 10.7956 24.4219 11.2113C25.4338 12.3619 26.0434 13.8299 26.0434 15.6255C26.0434 21.9418 22.3545 23.332 18.8393 23.7395C19.4055 24.2472 19.9105 25.2505 19.9105 26.784C19.9105 28.983 19.8907 30.756 19.8907 31.2945C19.8907 31.7347 20.1748 32.2466 20.9757 32.0848C27.2388 29.9063 31.7561 23.7456 31.7561 16.4834C31.7561 7.40101 24.6901 0.0384521 15.9731 0.0384521Z" fill="black"/>
</svg>
